<?xml version="1.0" encoding="utf-8"?>
<!-- Generator: Adobe Illustrator 26.3.1, SVG Export Plug-In . SVG Version: 6.00 Build 0)  -->
<svg version="1.1" id="Layer_1" xmlns="http://www.w3.org/2000/svg" xmlns:xlink="http://www.w3.org/1999/xlink" x="0px" y="0px"
	 viewBox="0 0 810 810" style="enable-background:new 0 0 810 810;" xml:space="preserve">
<style type="text/css">
	.st0{fill-rule:evenodd;clip-rule:evenodd;}
</style>
<path class="st0" d="M80.2,205.4c0-16.8,0-32.9,0-49.5c41.7,0,82.9,0,124.7,0c0,16.1,0,32.4,0,49.2c2.3,0.1,4.1,0.3,5.8,0.3
	c56.3,0,112.7,0,169,0.1c3.8,0,5.5-1.3,7.2-4.6c15-30.3,30.3-60.5,45.2-90.8c1.7-3.5,3.7-4.7,7.6-4.7c60,0.1,120,0.1,180,0
	c4,0,5.9,1.3,7.5,4.7c15,30.3,30.2,60.5,45.2,90.8c1.6,3.3,3.5,4.5,7.2,4.5c28.2-0.2,56.3-0.1,84.5-0.1c24.7,0,40.2,15.6,40.2,40.4
	c0,139.3,0,278.6,0,418c0,25-15.6,40.7-40.5,40.7c-239.3,0-478.6,0-717.9,0c-24.9,0-40.5-15.7-40.6-40.6c0-139.3,0-278.6,0-418
	c0-25,15.5-40.4,40.6-40.5C57.1,205.4,68.2,205.4,80.2,205.4z M404.6,679.5c119.7,0,239.3,0,359,0c11.2,0,15.7-4.6,15.7-15.8
	c0-139.2,0-278.3,0-417.5c0-11.4-4.2-15.7-15.6-15.7c-33.2,0-66.3-0.1-99.5,0.1c-3.7,0-5.6-1.1-7.2-4.5c-14.8-30-30-59.9-44.7-89.9
	c-2.2-4.4-4.7-5.7-9.5-5.7c-48.8,0.2-97.7,0.2-146.5,0c-4.6,0-7,1.2-9.1,5.4c-14.6,29.7-29.7,59.3-44.3,89c-2.1,4.2-4.4,5.6-9,5.6
	c-115.5-0.1-231-0.1-346.5-0.1c-13.2,0-17,3.8-17,16.8c0,138.5,0,277,0,415.5c0,12.6,4.2,16.7,16.8,16.7
	C166.3,679.5,285.4,679.5,404.6,679.5z M105.7,180.7c0,8.5,0,16.4,0,24.7c24.2,0,48,0,71.7-0.1c0.9,0,2.5-1.4,2.5-2.1
	c0.2-7.4,0.1-14.9,0.1-22.4C154.9,180.7,130.5,180.7,105.7,180.7z"/>
<path class="st0" d="M729.4,457.6c-0.9,109.4-91.7,197.9-202.1,196.9c-109.8-1-198.3-91.5-197.3-201.6
	c1-109.9,90.9-198.4,200.8-197.5C642.1,256.2,730.3,346.1,729.4,457.6z M529.8,629.5c96.4,0,174.7-78.3,174.6-174.7
	c-0.1-96.5-78.4-174.7-174.8-174.5C432.9,280.5,354.9,358.6,355,455C355.1,551.5,433.3,629.5,529.8,629.5z"/>
<path class="st0" d="M204.8,654.5c-6.5,0-12.6,0-18.7,0c-1.8,0-3.6,0-5.7,0c0-133.2,0-265.7,0-398.7c8,0,16,0,24.4,0
	C204.8,388.5,204.8,521,204.8,654.5z"/>
<path class="st0" d="M330.1,255.4c13.7,0.1,24.8,11.1,24.8,24.8c0,13.8-11.3,25.1-25.1,25c-13.7-0.1-24.7-11.2-24.8-24.9
	C305,266.4,316.1,255.3,330.1,255.4z"/>
<path class="st0" d="M404.8,454.9c0.1-68.8,55.8-124.5,124.7-124.7c69.1-0.1,125,55.6,125,124.7c0,69-56,124.8-125.1,124.7
	C460.7,579.5,404.7,523.5,404.8,454.9z M530,355.2c-55.1-0.3-99.9,44.3-100.1,99.6c-0.2,54.7,44.1,99.5,98.7,99.9
	C584,555,629,510.9,629.4,455.8C629.8,400.3,585.6,355.5,530,355.2z"/>
</svg>
